{
    "asset" : {
        "generator" : "Khronos glTF Blender I/O v1.3.48",
        "version" : "2.0"
    },
    "scene" : 0,
    "scenes" : [
        {
            "name" : "Scene",
            "nodes" : [
                0,
                1,
                2,
                3,
                4,
                5,
                6
            ]
        }
    ],
    "nodes" : [
        {
            "name" : "Light",
            "rotation" : [
                0.16907575726509094,
                0.7558803558349609,
                -0.27217137813568115,
                0.570947527885437
            ]
        },
        {
            "name" : "Camera",
            "rotation" : [
                0.483536034822464,
                0.33687159419059753,
                -0.20870360732078552,
                0.7804827094078064
            ],
            "translation" : [
                7.358891487121582,
                4.958309173583984,
                6.925790786743164
            ]
        },
        {
            "mesh" : 0,
            "name" : "Icosphere",
            "scale" : [
                1.923404335975647,
                1.923404335975647,
                1.923404335975647
            ]
        },
        {
            "mesh" : 1,
            "name" : "Cube",
            "scale" : [
                1,
                0.8751174807548523,
                1.070914387702942
            ]
        },
        {
            "mesh" : 2,
            "name" : "Cube.001",
            "translation" : [
                2.378373622894287,
                0,
                0
            ]
        },
        {
            "mesh" : 3,
            "name" : "Cube.002",
            "translation" : [
                2.378373622894287,
                0,
                0
            ]
        },
        {
            "mesh" : 4,
            "name" : "Icosphere.001",
            "scale" : [
                0.7470500469207764,
                0.7470500469207764,
                0.7470500469207764
            ]
        }
    ],
    "meshes" : [
        {
            "name" : "Icosphere",
            "primitives" : [
                {
                    "attributes" : {
                        "POSITION" : 0,
                        "NORMAL" : 1,
                        "TEXCOORD_0" : 2
                    },
                    "indices" : 3
                }
            ]
        },
        {
            "name" : "Cube.001",
            "primitives" : [
                {
                    "attributes" : {
                        "POSITION" : 4,
                        "NORMAL" : 5,
                        "TEXCOORD_0" : 6
                    },
                    "indices" : 7
                }
            ]
        },
        {
            "name" : "Cube.002",
            "primitives" : [
                {
                    "attributes" : {
                        "POSITION" : 8,
                        "NORMAL" : 9,
                        "TEXCOORD_0" : 10
                    },
                    "indices" : 7
                }
            ]
        },
        {
            "name" : "Cube.003",
            "primitives" : [
                {
                    "attributes" : {
                        "POSITION" : 11,
                        "NORMAL" : 12,
                        "TEXCOORD_0" : 13
                    },
                    "indices" : 7
                }
            ]
        },
        {
            "name" : "Icosphere.001",
            "primitives" : [
                {
                    "attributes" : {
                        "POSITION" : 14,
                        "NORMAL" : 15,
                        "TEXCOORD_0" : 16
                    },
                    "indices" : 3
                }
            ]
        }
    ],
    "accessors" : [
        {
            "bufferView" : 0,
            "componentType" : 5126,
            "count" : 407,
            "max" : [
                -1.0998278856277466,
                2.9722607135772705,
                2.99792218208313
            ],
            "min" : [
                -3.2100002765655518,
                -2.981675624847412,
                -2.997921943664551
            ],
            "type" : "VEC3"
        },
        {
            "bufferView" : 1,
            "componentType" : 5126,
            "count" : 407,
            "type" : "VEC3"
        },
        {
            "bufferView" : 2,
            "componentType" : 5126,
            "count" : 407,
            "type" : "VEC2"
        },
        {
            "bufferView" : 3,
            "componentType" : 5123,
            "count" : 447,
            "type" : "SCALAR"
        },
        {
            "bufferView" : 4,
            "componentType" : 5126,
            "count" : 24,
            "max" : [
                3,
                3,
                3
            ],
            "min" : [
                -3,
                -3,
                -3
            ],
            "type" : "VEC3"
        },
        {
            "bufferView" : 5,
            "componentType" : 5126,
            "count" : 24,
            "type" : "VEC3"
        },
        {
            "bufferView" : 6,
            "componentType" : 5126,
            "count" : 24,
            "type" : "VEC2"
        },
        {
            "bufferView" : 7,
            "componentType" : 5123,
            "count" : 36,
            "type" : "SCALAR"
        },
        {
            "bufferView" : 8,
            "componentType" : 5126,
            "count" : 24,
            "max" : [
                3.200000047683716,
                3.200000047683716,
                3.200000047683716
            ],
            "min" : [
                -3.200000047683716,
                -3.200000047683716,
                -3.200000047683716
            ],
            "type" : "VEC3"
        },
        {
            "bufferView" : 9,
            "componentType" : 5126,
            "count" : 24,
            "type" : "VEC3"
        },
        {
            "bufferView" : 10,
            "componentType" : 5126,
            "count" : 24,
            "type" : "VEC2"
        },
        {
            "bufferView" : 11,
            "componentType" : 5126,
            "count" : 24,
            "max" : [
                3.200000047683716,
                3.200000047683716,
                3.200000047683716
            ],
            "min" : [
                -3.200000047683716,
                -3.200000047683716,
                -3.200000047683716
            ],
            "type" : "VEC3"
        },
        {
            "bufferView" : 12,
            "componentType" : 5126,
            "count" : 24,
            "type" : "VEC3"
        },
        {
            "bufferView" : 13,
            "componentType" : 5126,
            "count" : 24,
            "type" : "VEC2"
        },
        {
            "bufferView" : 14,
            "componentType" : 5126,
            "count" : 407,
            "max" : [
                -1.0998278856277466,
                2.9722609519958496,
                2.99792218208313
            ],
            "min" : [
                -3.2100002765655518,
                -2.981675386428833,
                -2.997921943664551
            ],
            "type" : "VEC3"
        },
        {
            "bufferView" : 15,
            "componentType" : 5126,
            "count" : 407,
            "type" : "VEC3"
        },
        {
            "bufferView" : 16,
            "componentType" : 5126,
            "count" : 407,
            "type" : "VEC2"
        }
    ],
    "bufferViews" : [
        {
            "buffer" : 0,
            "byteLength" : 4884,
            "byteOffset" : 0
        },
        {
            "buffer" : 0,
            "byteLength" : 4884,
            "byteOffset" : 4884
        },
        {
            "buffer" : 0,
            "byteLength" : 3256,
            "byteOffset" : 9768
        },
        {
            "buffer" : 0,
            "byteLength" : 894,
            "byteOffset" : 13024
        },
        {
            "buffer" : 0,
            "byteLength" : 288,
            "byteOffset" : 13920
        },
        {
            "buffer" : 0,
            "byteLength" : 288,
            "byteOffset" : 14208
        },
        {
            "buffer" : 0,
            "byteLength" : 192,
            "byteOffset" : 14496
        },
        {
            "buffer" : 0,
            "byteLength" : 72,
            "byteOffset" : 14688
        },
        {
            "buffer" : 0,
            "byteLength" : 288,
            "byteOffset" : 14760
        },
        {
            "buffer" : 0,
            "byteLength" : 288,
            "byteOffset" : 15048
        },
        {
            "buffer" : 0,
            "byteLength" : 192,
            "byteOffset" : 15336
        },
        {
            "buffer" : 0,
            "byteLength" : 288,
            "byteOffset" : 15528
        },
        {
            "buffer" : 0,
            "byteLength" : 288,
            "byteOffset" : 15816
        },
        {
            "buffer" : 0,
            "byteLength" : 192,
            "byteOffset" : 16104
        },
        {
            "buffer" : 0,
            "byteLength" : 4884,
            "byteOffset" : 16296
        },
        {
            "buffer" : 0,
            "byteLength" : 4884,
            "byteOffset" : 21180
        },
        {
            "buffer" : 0,
            "byteLength" : 3256,
            "byteOffset" : 26064
        }
    ],
    "buffers" : [
        {
            "byteLength" : 29320,
            "uri" : "data:application/octet-stream;base64,"
        }
    ]
}
